<svg width="41" height="41" viewBox="0 0 41 41" fill="none" xmlns="http://www.w3.org/2000/svg">
<rect x="0.339844" y="0.406738" width="40" height="40" rx="20" fill="#F3F3F3"/>
<path d="M27.3398 29.4067C27.3398 29.959 27.7876 30.4067 28.3398 30.4067C28.8921 30.4067 29.3398 29.959 29.3398 29.4067H27.3398ZM24.3398 23.4067V22.4067V23.4067ZM16.3398 23.4067V22.4067V23.4067ZM12.3398 27.4067H11.3398H12.3398ZM11.3398 29.4067C11.3398 29.959 11.7876 30.4067 12.3398 30.4067C12.8921 30.4067 13.3398 29.959 13.3398 29.4067H11.3398ZM29.3398 29.4067V27.4067H27.3398V29.4067H29.3398ZM29.3398 27.4067C29.3398 26.0807 28.8131 24.8089 27.8754 23.8712L26.4612 25.2854C27.0238 25.848 27.3398 26.6111 27.3398 27.4067H29.3398ZM27.8754 23.8712C26.9377 22.9335 25.6659 22.4067 24.3398 22.4067V24.4067C25.1355 24.4067 25.8986 24.7228 26.4612 25.2854L27.8754 23.8712ZM24.3398 22.4067H16.3398V24.4067H24.3398V22.4067ZM16.3398 22.4067C15.0138 22.4067 13.742 22.9335 12.8043 23.8712L14.2185 25.2854C14.7811 24.7228 15.5442 24.4067 16.3398 24.4067V22.4067ZM12.8043 23.8712C11.8666 24.8089 11.3398 26.0807 11.3398 27.4067H13.3398C13.3398 26.6111 13.6559 25.848 14.2185 25.2854L12.8043 23.8712ZM11.3398 27.4067V29.4067H13.3398V27.4067H11.3398ZM23.3398 15.4067C23.3398 17.0636 21.9967 18.4067 20.3398 18.4067V20.4067C23.1013 20.4067 25.3398 18.1682 25.3398 15.4067H23.3398ZM20.3398 18.4067C18.683 18.4067 17.3398 17.0636 17.3398 15.4067H15.3398C15.3398 18.1682 17.5784 20.4067 20.3398 20.4067V18.4067ZM17.3398 15.4067C17.3398 13.7499 18.683 12.4067 20.3398 12.4067V10.4067C17.5784 10.4067 15.3398 12.6453 15.3398 15.4067H17.3398ZM20.3398 12.4067C21.9967 12.4067 23.3398 13.7499 23.3398 15.4067H25.3398C25.3398 12.6453 23.1013 10.4067 20.3398 10.4067V12.4067Z" fill="#979797"/>
</svg>
